<?xml version="1.0" encoding="UTF-8"?>
<svg xmlns="http://www.w3.org/2000/svg" width="192" height="152" viewBox="0 0 192 152">
  <g id="eye-slash" transform="translate(0 -19.752)">
    <g id="Group_819" data-name="Group 819" transform="translate(0 19.752)">
      <path id="Path_40" data-name="Path 40" d="M160.308,134.856A164.023,164.023,0,0,0,192,96S156,30,96,30a84.336,84.336,0,0,0-33.48,7.056l9.24,9.252A71.328,71.328,0,0,1,96,42c25.44,0,46.548,14.016,62.016,29.484A157.607,157.607,0,0,1,177.936,96c-.7,1.044-1.464,2.2-2.34,3.456a158.247,158.247,0,0,1-17.58,21.06c-1.98,1.98-4.044,3.936-6.2,5.832Z" transform="translate(0 -19.752)"></path>
      <path id="Path_41" data-name="Path 41" d="M135.564,109.781a41.576,41.576,0,0,0-9.85-43.579A42.179,42.179,0,0,0,81.876,56.41l9.876,9.818a30.11,30.11,0,0,1,25.464,8.434A29.715,29.715,0,0,1,125.7,99.975l9.864,9.806Zm-35.316,15.5,9.864,9.806a42.179,42.179,0,0,1-43.838-9.792,41.576,41.576,0,0,1-9.85-43.579L66.3,91.529a29.715,29.715,0,0,0,8.484,25.314,30.11,30.11,0,0,0,25.464,8.434Z" transform="translate(0 -19.752)"></path>
      <path id="Path_42" data-name="Path 42" d="M40.2,65.491q-3.24,2.871-6.216,5.825a157.2,157.2,0,0,0-19.92,24.436L16.4,99.2a157.849,157.849,0,0,0,17.58,20.992C49.452,135.606,70.572,149.576,96,149.576a71.314,71.314,0,0,0,24.24-4.306l9.24,9.234A84.583,84.583,0,0,1,96,161.537c-60,0-96-65.785-96-65.785a162.94,162.94,0,0,1,31.692-38.73l8.5,8.48ZM163.752,171.752,19.752,28.22l8.5-8.468,144,143.532Z" transform="translate(0 -19.752)"></path>
    </g>
  </g>
</svg>
